<svg id="Capa_1" data-name="Capa 1" xmlns="http://www.w3.org/2000/svg" viewBox="0 0 545 562.87"><defs><style>.cls-1{font-size:36px;font-family:MuktaMahee-Bold, Mukta Mahee;font-weight:700;}.cls-2{letter-spacing:-0.02em;}.cls-3{fill:none;stroke:#000;stroke-miterlimit:10;stroke-width:5px;}</style></defs><title>dog-logo</title><g id="Yorkshire_Terrier" data-name="Yorkshire Terrier"><path d="M409.5,396.45A14.51,14.51,0,0,0,395,411v9.94a14.5,14.5,0,1,0,29,.26h0V411A14.51,14.51,0,0,0,409.5,396.45Z" transform="translate(-195.5 -179.5)"/><path d="M512,411v10.2a14.55,14.55,0,0,0,19.21,13.77A14.26,14.26,0,0,0,541,421.25V411a14.55,14.55,0,0,0-19.23-13.74A14.26,14.26,0,0,0,512,410.87Z" transform="translate(-195.5 -179.5)"/><path d="M634.09,343.42A144.07,144.07,0,0,0,604.41,328a.05.05,0,0,1,0-.06,194.94,194.94,0,0,0-8.66-82.58,19.75,19.75,0,0,0-11.11-11.66,17.67,17.67,0,0,0-14.57,0A165.57,165.57,0,0,0,501.87,296a.05.05,0,0,1-.05,0H433.35a.05.05,0,0,1-.05,0A164.9,164.9,0,0,0,365.4,234a17.56,17.56,0,0,0-14.52-.05,19.69,19.69,0,0,0-11.07,11.61,194.16,194.16,0,0,0-8.62,82.27.05.05,0,0,1,0,.06,143.25,143.25,0,0,0-29.57,15.32,6.4,6.4,0,0,0,0,10.32,5.37,5.37,0,0,0,1.12.63L321.9,363a.05.05,0,0,1,0,.08c-11.18,21.8-10.06,51.82-10,53.21A6.37,6.37,0,0,0,322.25,421a237.45,237.45,0,0,1,23.12-16.22.06.06,0,0,1,.09,0l10.73,58.43a114,114,0,0,0,5.5,19.7.07.07,0,0,1,0,.05c-11.92,21.48-12.36,51-1.16,88a6.38,6.38,0,0,0,8,4.26,6.3,6.3,0,0,0,1.84-.9l17-12s.07,0,.08,0a167.43,167.43,0,0,0,30.32,40.48,6.38,6.38,0,0,0,10.84-4.23,264.36,264.36,0,0,1,7.18-47s0-.05.07,0A111.38,111.38,0,0,0,465.72,556h0l1.93,1h1.64a112,112,0,0,0,30.05-4.45.06.06,0,0,1,.07,0,266.36,266.36,0,0,1,7.21,47.16,6.41,6.41,0,0,0,8.35,5.78,6.53,6.53,0,0,0,2.61-1.62A168,168,0,0,0,548,563.34a.07.07,0,0,1,.09,0l17.06,12.06a6.4,6.4,0,0,0,8.92-1.53,6.3,6.3,0,0,0,.9-1.84c11.25-37.15,10.81-66.75-1.16-88.32a.07.07,0,0,1,0-.05,113.82,113.82,0,0,0,5.52-19.78L590,405.21a.06.06,0,0,1,.09,0,241.12,241.12,0,0,1,23.21,16.29,6.41,6.41,0,0,0,10.36-4.76c.06-1.4,1.19-31.54-10-53.42,0,0,0-.06,0-.08l19-8.67a6.64,6.64,0,0,0,4-6.07,6.41,6.41,0,0,0-2.63-5Zm-309.25,59.5c.85-11.44,3.47-28,11.28-39.07a6.38,6.38,0,0,0-2.52-9.59l-15-6.82a.05.05,0,0,1,0-.1c22.94-12.91,81.32-36.8,125.45,22.28a3.62,3.62,0,0,1,0,4.39,3.42,3.42,0,0,1-4,1.34c-24.16-8.11-63.2-9.36-115.14,27.62A.06.06,0,0,1,324.84,402.92ZM469.19,543l-1.49,1h-1.56a108.23,108.23,0,0,1-26.59-4.14.07.07,0,0,1,0-.08C445.62,521.48,455,494,468,494s21.74,27.48,27.85,45.78a.05.05,0,0,1,0,.07A74.54,74.54,0,0,1,469.23,543Zm95.89,16.36L549.2,548.15a6.4,6.4,0,0,0-8.92,1.53,7.23,7.23,0,0,0-.69,1.25c-.07.18-6.55,15.61-21.27,33.05a.05.05,0,0,1-.1,0c-3.24-29.52-14-103-50.22-103s-47.61,73.42-50.85,103a.06.06,0,0,1-.11,0c-14.65-17.39-21.2-32.87-21.27-33.05a6.4,6.4,0,0,0-8.36-3.47,6.1,6.1,0,0,0-1.25.69l-15.81,11.17a.06.06,0,0,1-.09,0c-9.1-35.07-6.18-61.46,8.7-78.52,17.11-19.61,46.91-23.39,67-23.46a.05.05,0,0,1,.05,0L459,474h0a11,11,0,0,0,15.44,1.88,10.85,10.85,0,0,0,1.89-1.88l13-16.7.05,0c20,.05,49.78,3.82,66.93,23.45,14.91,17.07,17.83,43.5,8.7,78.64Zm1.51-97.79c-.57,3.15-1.31,6.23-2.16,9.26a.05.05,0,0,1-.1,0c-19.69-20.92-50.33-25.7-72.06-26.1-.09-.19-.15-.39-.24-.58a10.92,10.92,0,0,0-9.88-6.18h-29a10.91,10.91,0,0,0-9.88,6.18,6.07,6.07,0,0,0-.24.59c-21.74.39-52.37,5.17-72.06,26.09a.05.05,0,0,1-.1,0c-.86-3-1.59-6.11-2.17-9.26l-11.56-63a.09.09,0,0,1,0-.07c35-18.06,61.4-16.48,78.79-10.64a16.5,16.5,0,0,0,18.34-25.51c-35.2-47.13-79.06-47.28-110.78-38.34a.07.07,0,0,1-.08-.05,181.78,181.78,0,0,1,8.4-74.31,6.9,6.9,0,0,1,3.92-3.88,5.08,5.08,0,0,1,4-.24,152,152,0,0,1,58.89,51.27.06.06,0,0,1,0,.09,47.1,47.1,0,0,0-15.32,5.53,6.4,6.4,0,0,0,6.39,11.08,34.08,34.08,0,0,1,17-4.54h82a34.06,34.06,0,0,1,17,4.54A6.4,6.4,0,0,0,532,302.46a47,47,0,0,0-15.31-5.53c-.05,0-.07-.06,0-.09a152,152,0,0,1,58.89-51.27,5.06,5.06,0,0,1,4,.24,6.9,6.9,0,0,1,3.92,3.88,181.41,181.41,0,0,1,8.4,74.3.06.06,0,0,1-.07.06c-31.72-8.94-75.58-8.79-110.78,38.34h0a16.48,16.48,0,0,0,18.33,25.5c17.4-5.83,43.8-7.41,78.79,10.66a0,0,0,0,1,0,.06ZM601.7,354.16a6.64,6.64,0,0,0-3.87,4.8,6.42,6.42,0,0,0,1.09,4.83c7.81,11,10.45,27.64,11.31,39.12,0,.06-.05.08-.1.06-34.54-24.6-63.37-32.28-85.92-32.28a91.42,91.42,0,0,0-29.2,4.66,3.39,3.39,0,0,1-4-1.34,3.6,3.6,0,0,1,0-4.38h0c44-58.93,102.44-35.14,125.43-22.27a.06.06,0,0,1,0,.1Z" transform="translate(-195.5 -179.5)"/><text class="cls-1" transform="translate(155.74 470.86)">HEN<tspan class="cls-2" x="66.2" y="0">R</tspan><tspan x="85.86" y="0">Y’S DOGS</tspan></text></g><circle class="cls-3" cx="272.5" cy="272.5" r="270"/></svg>